<?xml version="1.0" encoding="UTF-8" standalone="no"?><!DOCTYPE svg PUBLIC "-//W3C//DTD SVG 1.1//EN" "http://www.w3.org/Graphics/SVG/1.1/DTD/svg11.dtd"><svg width="100%" height="100%" viewBox="0 0 500 500" version="1.1" xmlns="http://www.w3.org/2000/svg" xmlns:xlink="http://www.w3.org/1999/xlink" xml:space="preserve" xmlns:serif="http://www.serif.com/" style="fill-rule:evenodd;clip-rule:evenodd;stroke-linecap:round;stroke-linejoin:round;stroke-miterlimit:1.5;"><ellipse cx="249.558" cy="382.872" rx="31.039" ry="31.89" style="fill:#be3855;stroke:#fff;stroke-width:10px;"/><ellipse cx="250.771" cy="324.913" rx="31.039" ry="31.89" style="fill:#be3855;stroke:#fff;stroke-width:10px;"/><ellipse cx="275.109" cy="360.389" rx="31.039" ry="31.89" style="fill:#be3855;stroke:#fff;stroke-width:10px;"/><g><ellipse cx="224.847" cy="361.877" rx="31.039" ry="31.89" style="fill:#be3855;stroke:#fff;stroke-width:10px;"/><ellipse cx="198.584" cy="333.643" rx="31.039" ry="31.89" style="fill:#be3855;stroke:#fff;stroke-width:10px;"/><ellipse cx="249.185" cy="326.401" rx="31.039" ry="31.89" style="fill:#be3855;stroke:#fff;stroke-width:10px;"/><ellipse cx="175.319" cy="290.912" rx="31.039" ry="31.89" style="fill:#be3855;stroke:#fff;stroke-width:10px;"/><ellipse cx="155.36" cy="236.258" rx="31.039" ry="31.89" style="fill:#be3855;stroke:#fff;stroke-width:10px;"/><ellipse cx="224.62" cy="294.278" rx="31.039" ry="31.89" style="fill:#be3855;stroke:#fff;stroke-width:10px;"/><ellipse cx="200.611" cy="244.706" rx="31.039" ry="31.89" style="fill:#be3855;stroke:#fff;stroke-width:10px;"/><ellipse cx="250" cy="250.783" rx="31.039" ry="31.89" style="fill:#be3855;stroke:#fff;stroke-width:10px;"/></g><g><ellipse cx="301.372" cy="332.155" rx="31.039" ry="31.89" style="fill:#be3855;stroke:#fff;stroke-width:10px;"/><ellipse cx="324.637" cy="289.424" rx="31.039" ry="31.89" style="fill:#be3855;stroke:#fff;stroke-width:10px;"/><ellipse cx="344.596" cy="234.771" rx="31.039" ry="31.89" style="fill:#be3855;stroke:#fff;stroke-width:10px;"/><ellipse cx="275.336" cy="292.79" rx="31.039" ry="31.89" style="fill:#be3855;stroke:#fff;stroke-width:10px;"/><ellipse cx="299.344" cy="243.218" rx="31.039" ry="31.89" style="fill:#be3855;stroke:#fff;stroke-width:10px;"/><ellipse cx="249.956" cy="249.295" rx="31.039" ry="31.89" style="fill:#be3855;stroke:#fff;stroke-width:10px;"/></g></svg>