<?xml version="1.0" encoding="UTF-8" standalone="no"?><!DOCTYPE svg PUBLIC "-//W3C//DTD SVG 1.1//EN" "http://www.w3.org/Graphics/SVG/1.1/DTD/svg11.dtd"><svg width="100%" height="100%" viewBox="0 0 1600 1600" version="1.1" xmlns="http://www.w3.org/2000/svg" xmlns:xlink="http://www.w3.org/1999/xlink" xml:space="preserve" xmlns:serif="http://www.serif.com/" style="fill-rule:evenodd;clip-rule:evenodd;stroke-linejoin:round;stroke-miterlimit:1.41421;"><rect x="179.885" y="173.536" width="1308.23" height="1287.05" style="fill:none;"/><g id="Layer1"><path d="M800.9,222.909c319.283,0 578.5,259.217 578.5,578.5c0,319.282 -259.217,578.5 -578.5,578.5c-319.283,0 -578.5,-259.218 -578.5,-578.5c0,-319.283 259.217,-578.5 578.5,-578.5Zm0,86.775c271.39,0 491.725,220.334 491.725,491.725c0,271.39 -220.335,491.725 -491.725,491.725c-271.39,0 -491.725,-220.335 -491.725,-491.725c0,-271.391 220.335,-491.725 491.725,-491.725Z" style="fill:#544288;"/><path d="M884.024,431.129c175.497,0 317.979,142.482 317.979,317.98c0,175.497 -142.482,317.979 -317.979,317.979c-175.498,0 -317.98,-142.482 -317.98,-317.979c0,-175.498 142.482,-317.98 317.98,-317.98Zm0,48.094c148.953,0 269.885,120.932 269.885,269.886c0,148.953 -120.932,269.885 -269.885,269.885c-148.954,0 -269.886,-120.932 -269.886,-269.885c0,-148.954 120.932,-269.886 269.886,-269.886Z" style="fill:#544288;"/><circle cx="796.483" cy="810.488" r="69.487" style="fill:#544288;stroke:#544288;stroke-width:1px;"/><g id="Layer2"><path d="M756.407,764.154c0,0 346.758,-367.306 341.012,-356.911l43.066,-5.272c0,0 -70.103,69.931 -142.428,150.505c-86.761,96.657 -176.719,208.628 -152.69,233.564c49.438,51.303 -88.96,-21.886 -88.96,-21.886Z" style="fill:#544288;stroke:#544288;stroke-width:15.06px;stroke-linecap:round;stroke-miterlimit:1.5;"/></g><path d="M842.175,850.918c0,0 -346.758,367.306 -341.013,356.911l-43.066,5.272c0,0 70.104,-69.932 142.429,-150.505c86.761,-96.657 176.719,-208.628 152.69,-233.564c-49.438,-51.303 88.96,21.886 88.96,21.886Z" style="fill:#544288;stroke:#544288;stroke-width:15.13px;stroke-linecap:round;stroke-miterlimit:1.5;"/></g><path d="M631.093,706.198c115.777,0 209.774,93.997 209.774,209.774c0,115.778 -93.997,209.775 -209.774,209.775c-115.778,0 -209.775,-93.997 -209.775,-209.775c0,-115.777 93.997,-209.774 209.775,-209.774Zm0,43.266c91.898,0 166.508,74.61 166.508,166.508c0,91.899 -74.61,166.509 -166.508,166.509c-91.899,0 -166.509,-74.61 -166.509,-166.509c0,-91.898 74.61,-166.508 166.509,-166.508Z" style="fill:#544288;"/></svg>